<?xml version="1.0" standalone="no"?>
<!DOCTYPE svg PUBLIC "-//W3C//DTD SVG 20010904//EN"
 "http://www.w3.org/TR/2001/REC-SVG-20010904/DTD/svg10.dtd">
<svg version="1.0" xmlns="http://www.w3.org/2000/svg"
 width="500.000000pt" height="500.000000pt" viewBox="0 0 500.000000 500.000000"
 preserveAspectRatio="xMidYMid meet">
<metadata>
Created by potrace 1.11, written by Peter Selinger 2001-2013
</metadata>
<g transform="translate(0.000000,500.000000) scale(0.100000,-0.100000)"
fill="#000000" stroke="none">
<path d="M2485 4940 c-3 -5 1 -10 10 -10 9 0 13 5 10 10 -3 6 -8 10 -10 10 -2
0 -7 -4 -10 -10z"/>
<path d="M2479 4913 c0 -5 -2 -18 -3 -30 -1 -12 0 -20 4 -18 3 2 6 -6 7 -18 0
-12 -1 -16 -4 -9 -9 23 -21 12 -18 -18 1 -16 -1 -30 -5 -30 -4 0 -8 -12 -8
-27 -1 -30 -9 -88 -12 -88 -1 0 -4 -13 -6 -28 -4 -21 -2 -27 8 -22 7 4 5 0 -4
-8 -10 -8 -18 -17 -18 -20 0 -4 8 -4 18 0 14 5 13 3 -3 -10 -11 -9 -16 -17
-11 -17 5 0 3 -7 -4 -15 -10 -12 -10 -18 1 -32 12 -14 12 -16 0 -8 -11 6 -13
3 -9 -13 4 -13 1 -22 -5 -22 -6 0 -8 -3 -4 -6 3 -3 1 -17 -4 -31 -8 -22 -7
-24 8 -19 16 5 16 5 -1 -8 -10 -8 -15 -19 -11 -25 3 -6 0 -11 -7 -11 -8 0 -9
-3 -3 -8 14 -10 18 -35 4 -27 -6 5 -10 0 -8 -11 1 -11 -1 -26 -4 -34 -4 -8 -8
-36 -10 -61 -2 -25 -7 -51 -11 -57 -4 -7 -5 -12 -2 -12 2 0 1 -13 -4 -29 -6
-21 -4 -33 9 -47 14 -16 14 -17 0 -6 -14 11 -17 9 -21 -12 -3 -14 -5 -41 -4
-60 1 -19 -2 -32 -6 -29 -5 2 -9 -7 -9 -21 -1 -14 -2 -31 -3 -38 0 -7 -19 -16
-41 -21 -22 -4 -58 -13 -80 -19 -22 -6 -45 -12 -51 -14 -46 -9 -95 -28 -208
-82 -84 -41 -204 -108 -216 -122 -3 -3 -25 -21 -50 -40 -62 -48 -107 -88 -149
-134 -20 -22 -43 -47 -51 -56 -56 -60 -155 -207 -191 -285 -13 -28 -27 -53
-32 -56 -5 -3 -9 -10 -9 -15 -1 -11 -7 -30 -21 -69 -7 -16 -12 -33 -13 -37 -1
-5 -3 -11 -4 -15 -1 -5 -2 -11 -1 -15 0 -5 -3 -8 -7 -8 -4 0 -9 -12 -10 -26
-1 -14 -5 -31 -9 -37 -4 -7 -8 -18 -9 -27 -2 -8 -6 -33 -9 -55 -3 -22 -8 -46
-11 -54 -2 -7 -7 -52 -11 -100 -5 -80 -15 -107 -35 -95 -4 3 -8 0 -8 -6 0 -6
-8 -10 -18 -8 -11 2 -27 -4 -37 -12 -17 -13 -18 -13 -10 0 5 9 -1 7 -15 -5
-14 -12 -20 -14 -15 -5 7 12 6 13 -7 3 -8 -7 -19 -9 -23 -5 -5 4 -5 -1 -2 -11
6 -15 4 -16 -14 -6 -15 8 -24 8 -32 0 -8 -8 -2 -13 21 -17 18 -4 32 -11 32
-17 0 -7 4 -7 12 1 7 7 17 12 23 12 5 0 3 -5 -5 -10 -13 -9 -13 -10 0 -11 8
-1 19 -1 24 0 4 1 15 -4 24 -11 13 -11 14 -11 7 2 -7 12 -5 12 11 -1 10 -9 29
-15 40 -14 20 1 23 -7 38 -109 9 -61 19 -123 21 -137 2 -15 15 -56 29 -92 13
-36 22 -68 19 -71 -4 -3 -1 -6 5 -6 7 0 12 -7 12 -15 0 -29 143 -288 180 -325
41 -41 103 -126 104 -143 1 -15 7 -22 21 -22 19 0 98 -58 134 -97 8 -10 21
-18 27 -18 7 0 14 -4 16 -8 9 -22 268 -171 268 -154 0 4 4 2 8 -4 6 -10 111
-51 152 -59 8 -2 15 -4 15 -5 0 -2 36 -10 77 -17 21 -3 35 -9 33 -13 -3 -5 3
-6 13 -3 13 3 25 -5 36 -22 10 -15 13 -24 7 -21 -6 4 -11 3 -11 -3 0 -5 8 -15
18 -20 9 -6 12 -11 6 -11 -13 0 -6 -48 10 -69 9 -12 8 -13 -3 -6 -9 5 -12 4
-7 -3 3 -6 9 -30 12 -54 4 -24 11 -49 18 -57 8 -12 8 -13 -1 -7 -10 5 -11 1
-4 -16 7 -19 21 -109 24 -155 0 -7 7 -13 16 -13 13 0 13 -2 2 -9 -8 -5 -11
-16 -7 -29 9 -28 16 -62 18 -95 1 -15 5 -27 8 -27 3 0 6 -12 6 -27 2 -38 10
-95 17 -113 5 -15 7 -36 7 -77 0 -13 4 -23 8 -23 4 0 9 -21 10 -48 5 -57 9
-96 12 -99 1 -2 3 -7 4 -12 0 -5 5 -13 10 -18 5 -5 6 -2 1 6 -6 10 -4 12 4 7
9 -6 9 -11 0 -22 -14 -17 -6 -29 13 -17 16 10 20 43 6 43 -7 0 -7 5 0 13 10
12 21 54 27 102 1 11 -3 26 -9 34 -8 11 -8 13 0 8 14 -8 25 29 19 61 -2 12 0
22 6 22 5 0 9 5 9 11 0 5 -6 7 -13 4 -6 -4 -3 1 7 9 11 9 14 16 7 16 -7 0 -9
5 -4 13 4 6 9 23 9 37 1 14 3 25 4 25 4 0 12 59 13 102 1 23 5 36 9 30 5 -8 8
-4 8 8 0 12 -6 27 -12 34 -11 10 -10 12 2 9 11 -2 15 6 15 34 0 20 4 34 9 31
5 -3 7 8 4 25 -2 17 -1 29 4 26 16 -10 8 19 -9 32 -17 13 -17 14 1 7 15 -5 18
-3 13 10 -4 10 -1 17 6 17 8 0 8 3 -2 9 -8 5 -9 10 -2 12 10 4 20 48 26 122 2
21 8 44 14 51 7 9 8 17 2 20 -11 7 -3 46 10 46 5 0 8 5 6 12 -1 7 28 16 78 23
67 11 110 20 180 38 27 8 92 29 110 37 93 41 111 48 118 49 4 0 32 16 62 36
31 19 60 35 65 35 6 0 10 5 10 10 0 6 5 10 11 10 26 0 289 223 289 246 0 3 10
16 23 29 52 56 67 73 67 82 0 5 8 18 18 29 9 11 25 33 35 49 20 33 126 243
126 250 2 19 15 62 24 73 5 6 7 12 4 12 -4 0 0 18 8 40 8 22 14 43 14 45 0 3
3 22 7 43 4 20 8 44 9 52 2 8 6 45 10 82 4 37 11 65 16 62 5 -3 9 0 9 6 0 7 6
10 14 7 8 -3 17 1 20 10 4 10 14 13 30 9 14 -3 28 -2 31 4 6 9 -8 14 -27 11
-5 0 -8 4 -8 10 0 5 -4 8 -8 5 -5 -3 -21 2 -36 9 -26 14 -28 13 -22 -3 6 -16
5 -16 -7 0 -8 10 -17 15 -20 11 -4 -3 -7 -1 -7 5 0 13 -42 12 -53 -3 -5 -6 -7
-3 -3 7 6 20 -9 34 -20 17 -5 -8 -8 -8 -14 0 -4 7 -17 13 -28 14 -12 1 -22 4
-22 7 0 7 -18 10 -57 11 -13 1 -20 5 -17 10 4 8 -33 14 -58 10 -5 0 -8 3 -8 9
0 5 -5 10 -11 10 -5 0 -7 -6 -3 -12 4 -7 -1 -6 -12 3 -28 24 -75 33 -86 17 -7
-9 -8 -8 -4 6 5 15 2 17 -14 13 -11 -3 -18 -1 -14 4 3 5 -4 10 -15 10 -22 2
-28 3 -51 11 -8 3 -35 11 -60 18 -25 7 -52 15 -60 18 -8 3 -26 7 -40 9 -13 2
-28 10 -32 16 -5 9 -8 8 -8 -3 0 -13 -1 -13 -10 0 -5 8 -10 12 -10 8 0 -4 -16
0 -35 8 -20 8 -40 12 -44 10 -10 -7 -9 47 0 54 4 3 9 12 11 20 2 8 9 21 16 28
7 8 10 18 7 23 -4 5 -3 9 2 9 16 0 31 48 19 60 -8 8 -7 10 5 5 13 -5 20 2 29
29 6 20 15 36 20 36 4 0 7 11 6 25 -2 13 0 22 5 19 4 -2 18 17 30 43 22 47 25
56 27 81 1 7 7 10 13 6 8 -5 10 1 7 19 -3 17 -1 24 8 20 6 -2 15 1 20 8 5 8 3
10 -6 4 -8 -5 -7 1 3 16 19 27 23 54 5 43 -7 -4 -8 -3 -4 4 4 6 13 9 21 5 11
-4 13 -1 8 13 -4 10 -2 15 3 11 6 -3 15 7 21 24 8 22 8 29 0 30 -7 0 -2 4 11
9 12 5 23 16 23 25 2 24 4 29 13 43 6 11 4 11 -10 4 -11 -5 -45 -22 -76 -37
-35 -17 -55 -32 -51 -39 4 -7 2 -7 -7 1 -10 9 -16 8 -27 -3 -8 -8 -19 -12 -24
-8 -5 3 -12 -1 -15 -10 -3 -9 -12 -12 -22 -9 -11 5 -14 2 -10 -9 5 -11 0 -14
-18 -12 -13 1 -24 -2 -24 -7 0 -5 -3 -8 -7 -7 -5 1 -21 -4 -37 -11 -25 -10
-27 -13 -15 -29 13 -15 12 -16 -3 -3 -15 11 -24 11 -48 1 -16 -7 -27 -16 -25
-20 3 -5 0 -12 -6 -16 -8 -4 -9 -3 -5 4 11 18 -5 14 -27 -5 -15 -13 -19 -14
-13 -3 5 9 2 8 -7 -2 -8 -10 -16 -15 -19 -12 -7 7 -74 -33 -71 -43 1 -5 -1
-10 -4 -13 -4 -3 -3 1 1 8 10 17 -4 15 -41 -8 -18 -11 -33 -17 -33 -14 0 4 -6
2 -13 -4 -9 -8 -15 -4 -24 14 -6 13 -7 22 -3 19 4 -3 6 4 3 15 -5 17 -8 18
-22 8 -13 -10 -14 -10 -3 2 6 8 12 24 12 37 0 13 -6 23 -12 23 -9 0 -8 4 2 10
8 5 11 10 5 10 -9 0 -15 33 -19 108 0 12 -4 22 -7 22 -4 0 -6 16 -4 35 1 24
-2 35 -12 35 -7 0 -13 5 -13 11 0 5 4 8 9 5 9 -6 7 36 -3 52 -3 4 -6 27 -7 50
-2 23 -8 42 -13 42 -6 0 -4 5 4 10 8 5 10 10 4 10 -10 0 -14 13 -15 53 0 9 -4
15 -10 12 -5 -4 -5 3 0 18 6 14 6 29 0 38 -5 8 -9 29 -9 47 0 18 -4 31 -9 28
-6 -4 -6 5 -2 21 7 27 5 35 -20 84 -8 16 -8 19 2 14 8 -6 10 -4 4 5 -4 7 -8
26 -7 41 0 16 -3 29 -7 29 -5 0 -6 11 -3 25 3 16 0 25 -8 25 -10 0 -10 3 0 15
8 10 9 15 2 15 -7 0 -9 7 -5 17 5 12 3 14 -8 8 -11 -7 -11 -5 1 10 14 17 13
18 -5 11 -16 -6 -18 -5 -7 5 6 7 12 17 12 22 0 4 -6 5 -12 1 -9 -5 -9 -2 1 9
7 9 9 17 4 17 -5 0 -8 15 -8 33 2 41 -4 59 -18 50 -6 -4 -7 -1 -1 8 12 20 14
39 3 39 -6 0 -8 4 -5 9 4 5 0 12 -6 14 -8 3 -9 6 -2 6 13 1 6 49 -10 70 -8 11
-8 13 2 7 6 -4 12 -2 12 3 0 6 -4 11 -9 11 -5 0 -8 12 -5 26 3 14 1 23 -3 21
-5 -3 -8 12 -7 34 0 21 -2 39 -5 39 -3 0 -7 19 -8 41 -2 23 -8 49 -15 57 -10
13 -10 14 0 8 6 -4 12 -2 12 3 0 6 -4 11 -8 11 -5 0 -9 14 -9 31 0 17 -5 34
-12 39 -11 6 -11 9 0 14 11 5 11 7 1 12 -10 5 -10 9 -1 21 7 8 8 13 3 12 -19
-3 -29 1 -18 9 7 4 8 15 3 30 -8 21 -28 31 -30 15z m21 -13 c0 -5 -5 -10 -11
-10 -5 0 -7 5 -4 10 3 6 8 10 11 10 2 0 4 -4 4 -10z m-25 -240 c3 -6 -1 -7 -9
-4 -18 7 -21 14 -7 14 6 0 13 -4 16 -10z m175 -3700 c0 -5 -5 -10 -11 -10 -5
0 -7 5 -4 10 3 6 8 10 11 10 2 0 4 -4 4 -10z m-247 -235 c-3 -9 -8 -14 -10
-11 -3 3 -2 9 2 15 9 16 15 13 8 -4z m102 -545 c3 -5 1 -10 -4 -10 -6 0 -11 5
-11 10 0 6 2 10 4 10 3 0 8 -4 11 -10z"/>
</g>
</svg>
